<svg width="1200" height="592" viewBox="0 0 1200 592" fill="none" xmlns="http://www.w3.org/2000/svg">
<path d="M288 136C288 60.9399 227.022 0 152 0V136H288Z" fill="black"/>
<path d="M288 150C288 225.06 227.022 286 152 286V150H288Z" fill="black"/>
<path d="M68 136C105.555 136 136 105.555 136 68C136 30.4446 105.555 0 68 0C30.4446 0 0 30.4446 0 68C0 105.555 30.4446 136 68 136Z" fill="black"/>
<path d="M136 150H0V286H136V150Z" fill="black"/>
<path d="M288 455H152V591H288V455Z" fill="black"/>
<path d="M152 440H288V312H152L152 440Z" fill="black"/>
<path d="M0 440H136L136 312H0L0 440Z" fill="black"/>
<path d="M896 136C896 60.9399 835.022 0 760 0V136H896Z" fill="black"/>
<path d="M896 150C896 225.06 835.022 286 760 286V150H896Z" fill="black"/>
<path d="M608 150C608 225.06 668.978 286 744 286V150H608Z" fill="black"/>
<path d="M608 136C608 60.9399 668.978 0 744 0V136H608Z" fill="black"/>
<path d="M592 136C592 60.9399 530.573 0 455 0V136H592Z" fill="black"/>
<path d="M592 286L455 150H592V286Z" fill="black"/>
<path d="M303 136C303 60.9399 364.427 0 440 0V136H303Z" fill="black"/>
<path d="M303 440C303 365.492 364.427 305 440 305V440H303Z" fill="black"/>
<path d="M455 591L591 591L591 455L455 455L455 591Z" fill="black"/>
<path d="M303 591L440 455H303V591Z" fill="black"/>
<path d="M592 440C592 365.492 530.573 305 455 305V440H592Z" fill="black"/>
<path d="M912 440C912 365.492 973.427 305 1049 305V440H912Z" fill="black"/>
<path d="M912 455L1049 591V455H912Z" fill="black"/>
<path d="M1200 591C1200 515.94 1139.02 455 1064 455V591H1200Z" fill="black"/>
<path d="M895 455C895 530.06 834.022 591 759 591V455H895Z" fill="black"/>
<path d="M607 455C607 530.06 667.978 591 743 591V455H607Z" fill="black"/>
<path d="M675 440C712.555 440 743 409.779 743 372.5C743 335.221 712.555 305 675 305C637.445 305 607 335.221 607 372.5C607 409.779 637.445 440 675 440Z" fill="black"/>
<path d="M1132 440C1169.56 440 1200 409.779 1200 372.5C1200 335.221 1169.56 305 1132 305C1094.44 305 1064 335.221 1064 372.5C1064 409.779 1094.44 440 1132 440Z" fill="black"/>
<path d="M136 455H101V591H136V455Z" fill="black"/>
<path d="M86 455H50V591H86V455Z" fill="black"/>
<path d="M35 455H0V591H35V455Z" fill="black"/>
<path d="M896 305H861V440H896V305Z" fill="black"/>
<path d="M846 305H811V440H846V305Z" fill="black"/>
<path d="M795 305H760V440H795V305Z" fill="black"/>
<path d="M440 150H405V286H440V150Z" fill="black"/>
<path d="M389 150H354V286H389V150Z" fill="black"/>
<path d="M339 150H304V286H339V150Z" fill="black"/>
</svg>
