<svg width="589" height="236" viewBox="0 0 589 236" fill="none" xmlns="http://www.w3.org/2000/svg">
<g filter="url(#filter0_d_199_2)">
<path d="M68.5762 176.311V225H11.0102V61.448H68.5762V119.552C71.2662 118.297 74.2252 116.772 77.4532 114.979C80.8606 113.006 84.2679 110.765 87.6752 108.254C94.8486 103.412 101.394 97.763 107.312 91.307C113.23 84.851 116.189 78.3053 116.189 71.67C116.189 65.214 114.037 60.9997 109.733 59.027C105.609 56.875 101.036 55.6197 96.0142 55.261C94.7589 55.261 93.5036 55.261 92.2482 55.261C90.9929 55.0817 89.7376 54.992 88.4822 54.992C88.4822 54.992 88.3926 54.992 88.2132 54.992C88.2132 54.992 88.1236 54.992 87.9442 54.992L0.25023 54.723L13.7002 5.22699H103.008C129.908 5.40632 148.559 11.7727 158.96 24.326C169.541 36.7 174.921 50.3293 175.1 65.214C175.1 65.3933 175.1 65.5727 175.1 65.752C175.1 65.752 175.1 65.8417 175.1 66.021C175.1 75.167 173.128 84.7613 169.182 94.804C165.237 104.847 158.512 114.979 149.007 125.201C140.579 133.988 129.819 142.776 116.727 151.563C103.636 160.171 87.5856 168.51 68.5762 176.58V176.311ZM279.256 229.842C253.252 229.842 232.36 219.62 216.579 199.176C200.977 178.732 190.306 156.136 184.568 131.388C182.774 124.035 181.429 116.683 180.533 109.33C179.636 101.977 179.188 94.8937 179.188 88.079C179.188 64.2277 186.182 43.694 200.17 26.478C214.337 9.26199 240.699 0.653986 279.256 0.653986C317.812 0.653986 344.085 9.26199 358.073 26.478C372.24 43.694 379.324 64.2277 379.324 88.079C379.324 94.8937 378.875 101.977 377.979 109.33C377.082 116.683 375.737 124.035 373.944 131.388C368.205 156.136 357.445 178.732 341.664 199.176C326.062 219.62 305.259 229.842 279.256 229.842ZM279.256 177.925C288.581 178.104 296.83 170.931 304.004 156.405C311.356 141.7 316.109 125.56 318.261 107.985C318.619 105.116 318.888 102.246 319.068 99.377C319.247 96.5077 319.337 93.6383 319.337 90.769C319.337 76.0637 316.198 65.9313 309.922 60.372C303.645 54.8127 293.423 52.033 279.256 52.033C265.088 52.033 254.866 54.8127 248.59 60.372C242.313 65.9313 239.175 76.0637 239.175 90.769C239.175 93.6383 239.264 96.5077 239.444 99.377C239.623 102.246 239.892 105.116 240.251 107.985C242.403 125.56 247.065 141.7 254.239 156.405C261.591 170.931 269.93 178.194 279.256 178.194V177.925ZM445.176 225H398.37V61.448H455.936V175.504C475.663 174.787 491.803 166.358 504.356 150.218C517.089 134.078 523.455 116.234 523.455 96.687C523.455 83.9543 521.034 74.7187 516.192 68.98C511.35 63.2413 506.06 59.3857 500.321 57.413C496.555 56.1577 492.879 55.4403 489.292 55.261C485.885 55.0817 483.105 54.992 480.953 54.992L387.61 54.723L401.06 5.22699H494.403C527.221 5.40632 550.086 14.2833 562.998 31.858C575.91 49.4327 582.366 69.3387 582.366 91.576C582.366 133.002 568.647 165.641 541.209 189.492C513.771 213.164 481.76 225 445.176 225Z" fill="#6DEEC0"/>
</g>
<defs>
<filter id="filter0_d_199_2" x="0.25" y="0.654297" width="588.116" height="235.188" filterUnits="userSpaceOnUse" color-interpolation-filters="sRGB">
<feFlood flood-opacity="0" result="BackgroundImageFix"/>
<feColorMatrix in="SourceAlpha" type="matrix" values="0 0 0 0 0 0 0 0 0 0 0 0 0 0 0 0 0 0 127 0" result="hardAlpha"/>
<feOffset dx="6" dy="6"/>
<feComposite in2="hardAlpha" operator="out"/>
<feColorMatrix type="matrix" values="0 0 0 0 0.94902 0 0 0 0 0.329412 0 0 0 0 0.438761 0 0 0 1 0"/>
<feBlend mode="normal" in2="BackgroundImageFix" result="effect1_dropShadow_199_2"/>
<feBlend mode="normal" in="SourceGraphic" in2="effect1_dropShadow_199_2" result="shape"/>
</filter>
</defs>
</svg>
