<svg width="600" height="325" viewBox="0 0 600 325" fill="none" xmlns="http://www.w3.org/2000/svg">
<g clip-path="url(#clip0_218_191)">
<g filter="url(#filter0_d_218_191)">
<path d="M78.5762 220.311V269H21.0102V105.448H78.5762V163.552C81.2662 162.297 84.2252 160.772 87.4532 158.979C90.8606 157.006 94.2679 154.765 97.6752 152.254C104.849 147.412 111.394 141.763 117.312 135.307C123.23 128.851 126.189 122.305 126.189 115.67C126.189 109.214 124.037 105 119.733 103.027C115.609 100.875 111.036 99.6197 106.014 99.261C104.759 99.261 103.504 99.261 102.248 99.261C100.993 99.0817 99.7376 98.992 98.4822 98.992C98.4822 98.992 98.3926 98.992 98.2132 98.992C98.2132 98.992 98.1236 98.992 97.9442 98.992L10.2502 98.723L23.7002 49.227H113.008C139.908 49.4063 158.559 55.7727 168.96 68.326C179.541 80.7 184.921 94.3293 185.1 109.214C185.1 109.393 185.1 109.573 185.1 109.752C185.1 109.752 185.1 109.842 185.1 110.021C185.1 119.167 183.128 128.761 179.182 138.804C175.237 148.847 168.512 158.979 159.007 169.201C150.579 177.988 139.819 186.776 126.727 195.563C113.636 204.171 97.5856 212.51 78.5762 220.58V220.311ZM289.256 273.842C263.252 273.842 242.36 263.62 226.579 243.176C210.977 222.732 200.306 200.136 194.568 175.388C192.774 168.035 191.429 160.683 190.533 153.33C189.636 145.977 189.188 138.894 189.188 132.079C189.188 108.228 196.182 87.694 210.17 70.478C224.337 53.262 250.699 44.654 289.256 44.654C327.812 44.654 354.085 53.262 368.073 70.478C382.24 87.694 389.324 108.228 389.324 132.079C389.324 138.894 388.875 145.977 387.979 153.33C387.082 160.683 385.737 168.035 383.944 175.388C378.205 200.136 367.445 222.732 351.664 243.176C336.062 263.62 315.259 273.842 289.256 273.842ZM289.256 221.925C298.581 222.104 306.83 214.931 314.004 200.405C321.356 185.7 326.109 169.56 328.261 151.985C328.619 149.116 328.888 146.246 329.068 143.377C329.247 140.508 329.337 137.638 329.337 134.769C329.337 120.064 326.198 109.931 319.922 104.372C313.645 98.8127 303.423 96.033 289.256 96.033C275.088 96.033 264.866 98.8127 258.59 104.372C252.313 109.931 249.175 120.064 249.175 134.769C249.175 137.638 249.264 140.508 249.444 143.377C249.623 146.246 249.892 149.116 250.251 151.985C252.403 169.56 257.065 185.7 264.239 200.405C271.591 214.931 279.93 222.194 289.256 222.194V221.925ZM455.176 269H408.37V105.448H465.936V219.504C485.663 218.787 501.803 210.358 514.356 194.218C527.089 178.078 533.455 160.234 533.455 140.687C533.455 127.954 531.034 118.719 526.192 112.98C521.35 107.241 516.06 103.386 510.321 101.413C506.555 100.158 502.879 99.4403 499.292 99.261C495.885 99.0817 493.105 98.992 490.953 98.992L397.61 98.723L411.06 49.227H504.403C537.221 49.4063 560.086 58.2833 572.998 75.858C585.91 93.4327 592.366 113.339 592.366 135.576C592.366 177.002 578.647 209.641 551.209 233.492C523.771 257.164 491.76 269 455.176 269Z" fill="#6DEEC0"/>
</g>
</g>
<defs>
<filter id="filter0_d_218_191" x="10.25" y="44.6543" width="588.116" height="235.188" filterUnits="userSpaceOnUse" color-interpolation-filters="sRGB">
<feFlood flood-opacity="0" result="BackgroundImageFix"/>
<feColorMatrix in="SourceAlpha" type="matrix" values="0 0 0 0 0 0 0 0 0 0 0 0 0 0 0 0 0 0 127 0" result="hardAlpha"/>
<feOffset dx="6" dy="6"/>
<feComposite in2="hardAlpha" operator="out"/>
<feColorMatrix type="matrix" values="0 0 0 0 0 0 0 0 0 0 0 0 0 0 0 0 0 0 1 0"/>
<feBlend mode="normal" in2="BackgroundImageFix" result="effect1_dropShadow_218_191"/>
<feBlend mode="normal" in="SourceGraphic" in2="effect1_dropShadow_218_191" result="shape"/>
</filter>
<clipPath id="clip0_218_191">
<rect width="600" height="325" fill="white"/>
</clipPath>
</defs>
</svg>
